<svg width="24" height="24" viewBox="0 0 24 24" fill="none" xmlns="http://www.w3.org/2000/svg">
<path d="M12 21.8C11.6785 21.8 11.2933 21.6553 10.8559 21.2323C10.4136 20.8048 9.96961 20.1378 9.57507 19.2359C9.24516 18.4819 8.96357 17.595 8.74768 16.6076C9.82149 16.4582 10.9864 16.375 12.2116 16.375C13.2828 16.375 14.3069 16.4385 15.2639 16.5541C15.0466 17.563 14.7608 18.4683 14.4249 19.2359C14.0304 20.1378 13.5864 20.8048 13.1441 21.2323C12.7066 21.6553 12.3215 21.8 12 21.8ZM12.2116 14.375C10.8953 14.375 9.61926 14.4648 8.42273 14.6336C8.32678 13.7975 8.275 12.9149 8.275 12C8.275 11.0851 8.32678 10.2025 8.42273 9.36638C9.61926 9.53524 10.8953 9.62501 12.2116 9.62501C13.3752 9.62501 14.5084 9.55483 15.5835 9.4216C15.6755 10.2414 15.725 11.1052 15.725 12C15.725 12.8948 15.6755 13.7587 15.5835 14.5784C14.5084 14.4452 13.3752 14.375 12.2116 14.375ZM6.45206 9.00034C6.33612 9.96058 6.275 10.9666 6.275 12C6.275 13.0334 6.33612 14.0394 6.45206 14.9997C5.18679 15.2961 4.05817 15.6904 3.12696 16.1659C2.53235 14.9016 2.2 13.4896 2.2 12C2.2 10.5104 2.53235 9.09839 3.12696 7.83413C4.05817 8.30966 5.18679 8.70393 6.45206 9.00034ZM8.74768 7.39247C8.96357 6.40498 9.24516 5.51816 9.57507 4.76408C9.96961 3.86227 10.4136 3.19527 10.8559 2.76768C11.2933 2.34474 11.6785 2.20001 12 2.20001C12.3215 2.20001 12.7066 2.34474 13.1441 2.76768C13.5864 3.19527 14.0304 3.86227 14.4249 4.76408C14.7608 5.53175 15.0466 6.43698 15.2639 7.44595C14.3069 7.56148 13.2828 7.62501 12.2116 7.62501C10.9864 7.62501 9.82149 7.54184 8.74768 7.39247ZM17.725 12C17.725 10.9996 17.6677 10.0248 17.5589 9.09243C18.8343 8.82119 19.9844 8.45288 20.9504 8.00278C21.4964 9.22348 21.8 10.5763 21.8 12C21.8 13.4237 21.4964 14.7765 20.9504 15.9972C19.9844 15.5471 18.8343 15.1788 17.5589 14.9076C17.6677 13.9752 17.725 13.0004 17.725 12ZM19.9459 6.26275C19.19 6.59813 18.2753 6.88943 17.2384 7.1156C16.9932 5.95103 16.6614 4.88624 16.2572 3.96244C16.1009 3.60518 15.9315 3.26382 15.749 2.9427C17.4379 3.64254 18.8886 4.801 19.9459 6.26275ZM17.2384 16.8844C18.2753 17.1106 19.19 17.4019 19.9459 17.7373C18.8886 19.199 17.4379 20.3575 15.749 21.0573C15.9315 20.7362 16.1009 20.3948 16.2572 20.0376C16.6614 19.1138 16.9932 18.049 17.2384 16.8844ZM7.74276 20.0376C7.89906 20.3948 8.06845 20.7362 8.25096 21.0573C6.61904 20.3811 5.20947 19.2766 4.16237 17.8841C4.88127 17.532 5.76703 17.2226 6.78133 16.9772C7.02452 18.1056 7.34936 19.1384 7.74276 20.0376ZM8.25096 2.94269C8.06845 3.26382 7.89906 3.60518 7.74276 3.96244C7.34936 4.86165 7.02452 5.89445 6.78133 7.02283C5.76703 6.77738 4.88127 6.46803 4.16237 6.11591C5.20947 4.72339 6.61904 3.61894 8.25096 2.94269Z" stroke="black" strokeWidth="2"/>
</svg>
