<svg width="21" height="21" viewBox="0 0 21 21" fill="none" xmlns="http://www.w3.org/2000/svg">
<path d="M2.2 7.45C1.78579 7.45 1.45 7.78579 1.45 8.2C1.45 8.61421 1.78579 8.95 2.2 8.95V7.45ZM19 8.95C19.4142 8.95 19.75 8.61421 19.75 8.2C19.75 7.78579 19.4142 7.45 19 7.45V8.95ZM2.30078 12.8499C1.88656 12.8499 1.55078 13.1857 1.55078 13.5999C1.55078 14.0141 1.88656 14.3499 2.30078 14.3499V12.8499ZM19.1008 14.3499C19.515 14.3499 19.8508 14.0141 19.8508 13.5999C19.8508 13.1857 19.515 12.8499 19.1008 12.8499V14.3499ZM19.45 10.6C19.45 15.4877 15.4877 19.45 10.6 19.45V20.95C16.3161 20.95 20.95 16.3161 20.95 10.6H19.45ZM10.6 19.45C5.71228 19.45 1.75 15.4877 1.75 10.6H0.25C0.25 16.3161 4.88385 20.95 10.6 20.95V19.45ZM1.75 10.6C1.75 5.71228 5.71228 1.75 10.6 1.75V0.25C4.88385 0.25 0.25 4.88385 0.25 10.6H1.75ZM10.6 1.75C15.4877 1.75 19.45 5.71228 19.45 10.6H20.95C20.95 4.88385 16.3161 0.25 10.6 0.25V1.75ZM10.6 19.45C10.2682 19.45 9.89308 19.2995 9.48647 18.9064C9.07624 18.5098 8.67255 17.8997 8.31727 17.0876C7.60767 15.4657 7.15 13.1725 7.15 10.6H5.65C5.65 13.3294 6.13253 15.8363 6.94303 17.6888C7.3478 18.614 7.84913 19.4098 8.44387 19.9848C9.04222 20.5633 9.77195 20.95 10.6 20.95V19.45ZM7.15 10.6C7.15 8.02746 7.60767 5.73432 8.31727 4.11239C8.67255 3.30031 9.07624 2.69022 9.48647 2.29363C9.89308 1.90052 10.2682 1.75 10.6 1.75V0.25C9.77195 0.25 9.04222 0.636735 8.44387 1.2152C7.84913 1.79018 7.3478 2.58598 6.94303 3.51116C6.13253 5.36374 5.65 7.87061 5.65 10.6H7.15ZM10.6 20.95C11.428 20.95 12.1578 20.5633 12.7561 19.9848C13.3509 19.4098 13.8522 18.614 14.257 17.6888C15.0675 15.8363 15.55 13.3294 15.55 10.6H14.05C14.05 13.1725 13.5923 15.4657 12.8827 17.0876C12.5274 17.8997 12.1238 18.5098 11.7135 18.9064C11.3069 19.2995 10.9317 19.45 10.6 19.45V20.95ZM15.55 10.6C15.55 7.87061 15.0675 5.36374 14.257 3.51116C13.8522 2.58598 13.3509 1.79018 12.7561 1.2152C12.1578 0.636735 11.428 0.25 10.6 0.25V1.75C10.9317 1.75 11.3069 1.90052 11.7135 2.29363C12.1238 2.69022 12.5274 3.30031 12.8827 4.11239C13.5923 5.73432 14.05 8.02746 14.05 10.6H15.55ZM2.2 8.95H19V7.45H2.2V8.95ZM2.30078 14.3499H19.1008V12.8499H2.30078V14.3499Z" fill="#30352E"/>
</svg>
