<svg width="24" height="24" viewBox="0 0 24 24" fill="none" xmlns="http://www.w3.org/2000/svg">
<path d="M19.5875 5.008C20.431 5.008 20.653 5.646 20.4035 7.144C20.118 8.857 19.2955 14.5285 18.6395 18.059C18.3885 19.41 17.936 19.9925 17.2775 19.9925C16.9155 19.9925 16.4915 19.8165 16.0045 19.495C15.3445 19.059 12.0125 16.8555 11.289 16.338C10.629 15.8665 9.71851 15.299 10.8605 14.182C11.267 13.784 13.9305 11.2405 16.0055 9.261C16.227 9.0495 16.0415 8.727 15.7955 8.727C15.7395 8.727 15.68 8.744 15.622 8.7825C12.825 10.6375 8.94651 13.212 8.45301 13.5475C7.95951 13.8825 7.47851 14.0975 6.83751 14.0975C6.51001 14.0975 6.14051 14.0415 5.70601 13.9165C4.73451 13.6375 3.78601 13.305 3.41651 13.178C1.99401 12.69 2.33151 12.0575 3.71301 11.4495C9.25201 9.013 16.4195 6.042 17.409 5.631C18.373 5.2305 19.089 5.008 19.5875 5.008ZM19.5875 3.508C18.9035 3.508 18.08 3.7285 16.8345 4.245L16.685 4.307C11.3675 6.515 6.54601 8.564 3.10901 10.076C2.57201 10.3125 0.938514 11.031 1.00201 12.534C1.02901 13.1825 1.38601 14.0665 2.93001 14.596L3.04401 14.635C3.47501 14.7835 4.37251 15.093 5.29251 15.3575C5.85251 15.5185 6.35851 15.5965 6.83801 15.5965C7.67001 15.5965 8.31451 15.359 8.81851 15.0825C8.81601 15.1665 8.81801 15.251 8.82451 15.336C8.91551 16.492 9.80951 17.126 10.3435 17.505L10.418 17.558C11.2065 18.122 14.775 20.4795 15.179 20.746C15.9395 21.248 16.626 21.4915 17.2785 21.4915C18.3045 21.4915 19.63 20.9435 20.115 18.3325C20.5755 15.856 21.1075 12.3965 21.496 9.8705C21.6615 8.7925 21.7975 7.9085 21.884 7.39C22.0585 6.343 22.1385 5.157 21.41 4.2975C21.104 3.9375 20.54 3.508 19.5875 3.508Z" fill="#30352E"/>
</svg>
